<?xml version="1.0" encoding="UTF-8"?>
<svg version="1.1" xmlns="http://www.w3.org/2000/svg" width="512" height="512">
<path d="M0 0 C9.15371562 7.18123754 16.46426964 14.74915798 23.02734375 24.375 C23.58164062 25.17421875 24.1359375 25.9734375 24.70703125 26.796875 C35.23478129 43.05215745 38.57071735 61.73426373 38.21484375 80.75 C38.19974157 82.17967311 38.18606312 83.60936198 38.17382812 85.0390625 C38.14132488 88.48471198 38.08986227 91.92974849 38.02734375 95.375 C38.99343063 95.36611755 39.95951752 95.35723511 40.95487976 95.3480835 C50.06254928 95.26697131 59.17014544 95.20702201 68.27809429 95.16775131 C72.96053314 95.14688298 77.64268023 95.11857919 82.32495117 95.07324219 C86.84425026 95.0297574 91.36326884 95.00585722 95.882761 94.99549103 C97.60635608 94.98810437 99.32993593 94.97367981 101.05341148 94.95207977 C103.46913105 94.92301006 105.883694 94.91904537 108.29956055 94.92089844 C109.01094177 94.90651733 109.722323 94.89213623 110.45526123 94.87731934 C115.24920436 94.91706775 117.66186467 95.98183807 121.02734375 99.375 C122.33690286 101.99411821 122.15640542 103.92042628 122.16156483 106.85507393 C122.16602267 108.02657655 122.17048051 109.19807917 122.17507344 110.40508187 C122.1747969 112.35268326 122.1747969 112.35268326 122.17451477 114.33963013 C122.17781258 115.72413673 122.18153797 117.10864237 122.18565625 118.49314678 C122.19569503 122.31147165 122.1993961 126.12978081 122.20204556 129.94811702 C122.20594343 134.06158923 122.21552257 138.17504894 122.22425842 142.28851318 C122.2440445 152.23371068 122.25409483 162.17890922 122.26298621 172.12412149 C122.26736835 176.80916715 122.2727356 181.49421167 122.27797508 186.17925644 C122.29499465 201.75931883 122.30948583 217.3393805 122.31672382 232.91945076 C122.31863371 236.96501796 122.32055403 241.01058516 122.32250977 245.05615234 C122.32299351 246.06165217 122.32347725 247.06715199 122.32397565 248.1031215 C122.33226456 264.36846773 122.35757894 280.63374014 122.39009044 296.89905418 C122.42321019 313.60529957 122.44117729 330.31150753 122.44436806 347.01778591 C122.44652935 356.39464633 122.4552212 365.77139933 122.48082924 375.14822769 C122.50260401 383.13998545 122.51055374 391.13160973 122.50086246 399.12339379 C122.49633638 403.19628015 122.49810412 407.26889152 122.5176239 411.34173965 C122.62891824 435.9406053 122.12810506 458.13060414 103.8125 476.68359375 C91.49549137 488.58600462 77.55799732 494.69744755 60.43403625 494.64242554 C59.39098381 494.64695665 58.34793136 494.65148776 57.27327126 494.65615618 C53.79061516 494.66878025 50.30811585 494.66718107 46.82543945 494.66552734 C44.32321472 494.67151387 41.82099183 494.6783197 39.31877136 494.68588257 C33.23411694 494.70170534 27.14952377 494.70799047 21.06485448 494.70910732 C16.11520835 494.71005965 11.16557495 494.71417915 6.21593285 494.72050858 C-7.83736208 494.7381119 -21.89062653 494.74734901 -35.94393256 494.74584763 C-36.70066479 494.74576772 -37.45739703 494.7456878 -38.23706055 494.74560547 C-39.37355555 494.74548283 -39.37355555 494.74548283 -40.53301004 494.74535771 C-52.80370565 494.74454532 -65.07427835 494.76367329 -77.34493842 494.7918822 C-89.96411167 494.82066183 -102.58322509 494.83441967 -115.20243198 494.83269465 C-122.2791846 494.83203244 -129.35580842 494.83744999 -136.43253136 494.85905075 C-143.09172784 494.87924777 -149.75060817 494.87853716 -156.40983391 494.86401749 C-158.84740853 494.8619319 -161.28500026 494.86661521 -163.72254562 494.8787384 C-184.51161987 494.9753977 -200.98415385 492.58914547 -216.69140625 477.65234375 C-217.44421875 476.90082031 -218.19703125 476.14929688 -218.97265625 475.375 C-219.62234375 474.73691406 -220.27203125 474.09882813 -220.94140625 473.44140625 C-237.74327386 455.71838362 -236.56986263 431.68673686 -236.49555492 409.01571476 C-236.48642751 404.88972776 -236.50051127 400.76380622 -236.51147461 396.63783264 C-236.52917792 388.57837499 -236.52545813 380.51906707 -236.51382405 372.45960376 C-236.50476445 365.91110289 -236.50357658 359.36264377 -236.50791931 352.81413841 C-236.50853224 351.87967777 -236.50914518 350.94521712 -236.50977668 349.98243948 C-236.51105564 348.08382667 -236.5123525 346.18521388 -236.51366705 344.28660109 C-236.52504702 326.5249437 -236.51199619 308.76336919 -236.49046558 291.0017254 C-236.47256458 275.76193253 -236.47572838 260.52226143 -236.49414062 245.2824707 C-236.51553734 227.56424541 -236.52398261 209.84609236 -236.51169157 192.12785596 C-236.5104174 190.23986671 -236.50915992 188.35187744 -236.50791931 186.46388817 C-236.50730221 185.53504226 -236.50668511 184.60619635 -236.50604931 183.6492036 C-236.50259521 177.10306075 -236.50842534 170.55696377 -236.51783752 164.01082802 C-236.52904411 156.04212886 -236.5260444 148.07358735 -236.50471455 140.1049063 C-236.49419101 136.03937742 -236.49010481 131.97411162 -236.50331116 127.90858459 C-236.51521213 124.18880997 -236.50871124 120.46954286 -236.48740095 116.74981441 C-236.48080213 114.76398439 -236.49389061 112.77811925 -236.50762987 110.79232579 C-236.49198339 109.02611215 -236.49198339 109.02611215 -236.47602081 107.22421741 C-236.4753714 106.20802541 -236.47472199 105.1918334 -236.47405291 104.14484769 C-235.83693626 100.62524689 -234.41532276 98.93829146 -231.97265625 96.375 C-228.96759795 94.87247085 -225.88008692 95.24507241 -222.58544922 95.26147461 C-221.44384338 95.26125557 -221.44384338 95.26125557 -220.2791748 95.2610321 C-217.75770236 95.26173007 -215.23630333 95.26951706 -212.71484375 95.27734375 C-210.96892334 95.27920834 -209.22300241 95.28063205 -207.4770813 95.28163147 C-202.87720297 95.28545341 -198.27735611 95.29528095 -193.67749023 95.30633545 C-188.98551865 95.31655651 -184.293542 95.32113058 -179.6015625 95.32617188 C-170.39191324 95.33690349 -161.18228736 95.35397606 -151.97265625 95.375 C-151.9883667 94.5092334 -152.00407715 93.6434668 -152.02026367 92.75146484 C-152.07210376 89.4673842 -152.10934467 86.18375258 -152.13745117 82.89941406 C-152.15232387 81.49146565 -152.17262844 80.0835617 -152.19897461 78.67578125 C-152.66395698 53.14733743 -143.92746871 29.21067853 -126.27929688 10.5390625 C-93.00353268 -23.05976737 -38.30940378 -28.03358101 0 0 Z M-118.97265625 28.375 C-121.64689189 31.8947311 -123.89703099 35.47534042 -125.97265625 39.375 C-126.43027344 40.23351563 -126.88789063 41.09203125 -127.359375 41.9765625 C-128.71405429 44.73473835 -129.86835325 47.50762015 -130.97265625 50.375 C-131.36710937 51.35597656 -131.7615625 52.33695313 -132.16796875 53.34765625 C-136.91611507 67.54228947 -134.97265625 79.47932003 -134.97265625 95.375 C-83.49265625 95.375 -32.01265625 95.375 21.02734375 95.375 C21.02734375 68.35552518 20.50213178 45.62692195 2.02734375 25.375 C1.25003906 24.49457031 0.47273437 23.61414063 -0.328125 22.70703125 C-14.55192434 7.47474983 -33.11807713 -0.25345483 -53.8203125 -1.84375 C-79.62309585 -2.6772181 -102.36257496 9.04997733 -118.97265625 28.375 Z M-218.97265625 112.375 C-219.03882138 153.57382205 -219.09420283 194.7725939 -219.12585224 235.97145389 C-219.12960425 240.83790295 -219.13348723 245.70435189 -219.13745117 250.57080078 C-219.1382381 251.53960286 -219.13902503 252.50840493 -219.13983581 253.50656465 C-219.15288152 269.18303534 -219.17653076 284.85947296 -219.20411464 300.53592405 C-219.23219208 316.62735651 -219.24883746 332.71877168 -219.25492173 348.81022763 C-219.25903332 358.73553275 -219.27200871 368.66074435 -219.29640565 378.58602068 C-219.31229171 385.396746 -219.31705012 392.20742313 -219.31316038 399.01816562 C-219.3112433 402.94468299 -219.31413425 406.87103721 -219.33027267 410.79752541 C-219.3449671 414.39916252 -219.34554745 418.00052813 -219.33535293 421.60217825 C-219.33350292 423.50805616 -219.34635586 425.41393131 -219.35990018 427.31976199 C-219.28815864 441.20406182 -216.12473003 453.4549183 -206.64453125 463.953125 C-194.08538591 475.88036366 -179.8982512 478.53857048 -163.17022705 478.50871277 C-162.22432544 478.51097833 -161.27842382 478.51324388 -160.30385852 478.51557809 C-157.15601021 478.52187345 -154.00820545 478.52109161 -150.86035156 478.52026367 C-148.594431 478.52325795 -146.32851094 478.5266611 -144.06259155 478.53044128 C-137.92194887 478.53925816 -131.78132013 478.54161843 -125.64067173 478.54225707 C-121.80002511 478.54296889 -117.95938201 478.54510571 -114.11873627 478.54775429 C-101.39945354 478.55652341 -88.68018237 478.56117495 -75.96089736 478.56042381 C-75.27641842 478.56038386 -74.59193948 478.5603439 -73.88671875 478.56030273 C-73.20139567 478.56026185 -72.51607259 478.56022097 -71.80998215 478.56017885 C-60.70982963 478.55977262 -49.60971107 478.56933852 -38.50956836 478.5834411 C-27.08818105 478.59783631 -15.66681715 478.6045268 -4.24541926 478.60384732 C2.15723139 478.60359291 8.5598436 478.60641284 14.96248627 478.61702538 C20.98716474 478.62673923 27.01176825 478.62676302 33.03644943 478.61950874 C35.24020116 478.61846698 37.44395764 478.62080137 39.64770126 478.6268692 C59.30131643 478.67745385 76.94396254 478.67252438 92.02734375 464.375 C103.01172769 452.52950757 105.3418142 439.67614175 105.26785278 423.95445251 C105.26872617 422.60612408 105.27047959 421.25779597 105.27303112 419.90946966 C105.27748255 416.2242483 105.26953147 412.53914418 105.25947499 408.85393775 C105.25081086 404.87246381 105.25376275 400.8909961 105.25527954 396.90951538 C105.25632652 390.0179126 105.25006948 383.12634779 105.23880386 376.23475456 C105.22252646 366.27076219 105.21733856 356.30678811 105.21482788 346.34278388 C105.21045429 330.17553367 105.19715431 314.00830368 105.17822266 297.84106445 C105.15985515 282.13924256 105.14570291 266.43742617 105.13720703 250.7355957 C105.13668158 249.76718665 105.13615614 248.7987776 105.13561477 247.80102282 C105.13300463 242.94263541 105.13047723 238.08424795 105.12799096 233.22586048 C105.10726893 192.94222236 105.07040481 152.65862165 105.02734375 112.375 C82.91734375 112.375 60.80734375 112.375 38.02734375 112.375 C37.73825491 124.08740408 37.73825491 124.08740408 37.45922852 135.80004883 C37.42110026 137.26905248 37.38263067 138.73804732 37.34375 140.20703125 C37.32727417 140.96898804 37.31079834 141.73094482 37.29382324 142.51599121 C37.20567879 145.70660927 37.04314083 148.32760877 36.02734375 151.375 C34.42355034 151.42916188 32.81922969 151.46786638 31.21484375 151.5 C30.32152344 151.52320313 29.42820312 151.54640625 28.5078125 151.5703125 C26.02734375 151.375 26.02734375 151.375 23.02734375 149.375 C19.12150766 137.65749173 21.39046138 124.7209994 21.02734375 112.375 C-30.45265625 112.375 -81.93265625 112.375 -134.97265625 112.375 C-135.30265625 123.595 -135.63265625 134.815 -135.97265625 146.375 C-137.97265625 150.375 -137.97265625 150.375 -139.97265625 151.375 C-141.6796836 151.44496014 -143.38933628 151.45940154 -145.09765625 151.4375 C-146.00773437 151.42847656 -146.9178125 151.41945312 -147.85546875 151.41015625 C-148.55414063 151.39855469 -149.2528125 151.38695312 -149.97265625 151.375 C-151.21730927 147.64104094 -151.20485537 144.10135358 -151.2890625 140.20703125 C-151.30771362 139.50235718 -151.32636475 138.79768311 -151.34558105 138.07165527 C-151.41378936 135.44372893 -151.47399511 132.8155998 -151.53515625 130.1875 C-151.75171875 121.3703125 -151.75171875 121.3703125 -151.97265625 112.375 C-174.08265625 112.375 -196.19265625 112.375 -218.97265625 112.375 Z " fill="#3FA2DA" transform="translate(312.97265625,17.625)"/>
</svg>
